<svg width="19" height="19" xmlns="http://www.w3.org/2000/svg">
 <g>
  <title>background</title>
  <rect fill="none" id="canvas_background" height="21" width="21" y="-1" x="-1"/>
 </g>
 <g>
  <title>Layer 1</title>
  <defs transform="rotate(116.92860412597656 0,0) " stroke="null">
   <rect stroke="null" width="100" id="SVGID_1_" height="100"/>
  </defs>
  <path stroke="null" fill="#7f7f7f" id="svg_2" d="m18.927657,3.201029c0,-1.662254 -1.495769,-3.163597 -3.15297,-3.163597l-12.611878,0c-1.657201,0 -3.15297,1.501343 -3.15297,3.163597l0,12.653124c0,1.662254 1.495769,3.163597 3.15318,3.163597l6.305729,0l0,-7.170342l-2.312178,0l0,-3.163386l2.312178,0l0,-1.232455c0,-2.125585 1.590778,-4.039855 3.547091,-4.039855l2.54865,0l0,3.163386l-2.54865,0c-0.278933,0 -0.604319,0.339748 -0.604319,0.848631l0,1.260293l3.15297,0l0,3.163386l-3.15297,0l0,7.170342l3.363167,0c1.657201,0 3.15297,-1.501343 3.15297,-3.163597l0,-12.653124z"/>
  <path stroke="null" fill="#7f7f7f" id="svg_3" d="m18.927657,3.201029c0,-1.662254 -1.495768,-3.163597 -3.152969,-3.163597l-12.611878,0c-1.657201,0 -3.15297,1.501343 -3.15297,3.163597l0,12.653124c0,1.662254 1.495769,3.163597 3.15318,3.163597l6.305729,0l0,-7.170342l-2.312178,0l0,-3.163387l2.312178,0l0,-1.232455c0,-2.125585 1.590778,-4.039855 3.54709,-4.039855l2.548651,0l0,3.163386l-2.548651,0c-0.278932,0 -0.604319,0.339748 -0.604319,0.848631l0,1.260293l3.15297,0l0,3.163387l-3.15297,0l0,7.170342l3.363168,0c1.657201,0 3.152969,-1.501343 3.152969,-3.163597l0,-12.653124z"/>
  <path stroke="null" fill="#7f7f7f" id="svg_4" d="m18.927657,3.138529c0,-1.662254 -1.495768,-3.163597 -3.152969,-3.163597l-12.611878,0c-1.657201,0 -3.15297,1.501343 -3.15297,3.163597l0,12.653124c0,1.662254 1.495769,3.163597 3.15318,3.163597l6.305729,0l0,-7.170342l-2.312178,0l0,-3.163387l2.312178,0l0,-1.232455c0,-2.125585 1.590778,-4.039855 3.54709,-4.039855l2.548651,0l0,3.163386l-2.548651,0c-0.278932,0 -0.604319,0.339748 -0.604319,0.848631l0,1.260293l3.15297,0l0,3.163387l-3.15297,0l0,7.170342l3.363168,0c1.657201,0 3.152969,-1.501343 3.152969,-3.163597l0,-12.653124z"/>
 </g>
</svg>