<svg xmlns="http://www.w3.org/2000/svg" width="90" height="36" viewBox="0 0 90 36">
    <g fill="#000" fill-rule="evenodd">
        <path d="M13.726 31.753a1.615 1.615 0 0 0 1.33-.637c.17-.214.3-.484.394-.808.093-.324.14-.71.14-1.157 0-.886-.178-1.541-.533-1.966-.355-.425-.798-.637-1.33-.637h-.733v5.205h.732zm-.732.343v3.288l.799.205v.206H10v-.206l.798-.205v-8.768L10 26.411v-.206h3.726c.763 0 1.409.067 1.937.2.527.132.953.326 1.277.581.324.256.557.564.699.925.142.36.213.774.213 1.24 0 .465-.071.879-.213 1.24-.142.36-.375.668-.699.924-.324.256-.75.45-1.277.582-.528.133-1.174.199-1.937.199h-.732zM26.901 31c0-.904-.06-1.66-.18-2.267s-.275-1.094-.465-1.459c-.191-.365-.406-.623-.646-.774a1.321 1.321 0 0 0-.705-.226c-.23 0-.466.075-.705.226-.24.15-.455.409-.646.774-.19.365-.346.852-.466 1.459-.12.607-.18 1.363-.18 2.267 0 .904.06 1.66.18 2.267s.275 1.094.466 1.459c.19.365.406.623.646.774.24.15.474.226.705.226.23 0 .466-.075.705-.226.24-.15.455-.409.646-.774.19-.365.346-.852.465-1.459.12-.607.18-1.363.18-2.267zm2.329 0c0 .804-.104 1.516-.313 2.137-.208.621-.501 1.144-.878 1.568a3.665 3.665 0 0 1-1.364.966 4.607 4.607 0 0 1-1.77.329c-.648 0-1.238-.11-1.77-.329a3.665 3.665 0 0 1-1.364-.966c-.377-.424-.67-.947-.878-1.568-.209-.621-.313-1.333-.313-2.137s.104-1.516.313-2.137c.208-.621.5-1.144.878-1.568a3.665 3.665 0 0 1 1.364-.966 4.607 4.607 0 0 1 1.77-.329c.648 0 1.238.11 1.77.329.532.219.987.54 1.364.966.377.424.67.947.878 1.568.209.621.313 1.333.313 2.137zm5.922 4.658c.506 0 .91-.156 1.211-.466.302-.31.453-.726.453-1.247 0-.356-.118-.664-.353-.924a4.52 4.52 0 0 0-.872-.733 17.121 17.121 0 0 0-1.138-.685 7.041 7.041 0 0 1-1.137-.781 4.123 4.123 0 0 1-.872-1.02c-.235-.389-.353-.857-.353-1.405 0-.329.067-.637.2-.924.133-.288.335-.541.605-.76.271-.22.61-.393 1.018-.521.409-.128.888-.192 1.438-.192.31 0 .599.048.865.144.266.096.492.198.678.308.222.128.417.274.586.438.071-.118.149-.226.233-.322.084-.095.162-.175.233-.24.088-.072.177-.136.266-.191h.333v2.603h-.533a4.627 4.627 0 0 0-.519-1.192 3.308 3.308 0 0 0-.745-.829c-.31-.251-.688-.377-1.131-.377-.169 0-.328.037-.48.11-.15.073-.283.176-.398.308a1.568 1.568 0 0 0-.28.48c-.07.187-.106.39-.106.61 0 .392.117.728.352 1.006.235.279.526.537.872.774.346.238.725.47 1.138.699.412.228.792.482 1.138.76.346.279.636.596.871.952s.353.785.353 1.288c0 .356-.075.696-.226 1.02-.151.325-.377.61-.679.856-.302.247-.683.441-1.144.583-.462.141-.999.212-1.61.212a3.45 3.45 0 0 1-1.025-.137 4.28 4.28 0 0 1-.746-.301 2.718 2.718 0 0 1-.625-.452 1.695 1.695 0 0 1-.233.328 3.615 3.615 0 0 1-.233.233 2.422 2.422 0 0 1-.266.192h-.333V33.26h.532c.134.448.32.85.56 1.206.106.155.226.303.359.445.133.142.286.267.459.377.173.11.366.198.579.267.213.068.448.103.705.103zm8.251.137v-.206l.799-.205v-8.836h-1.53c0 .365-.047.678-.14.938a4.01 4.01 0 0 1-.3.665c-.124.21-.266.383-.426.52h-.4v-2.466h7.786v2.466h-.4a1.922 1.922 0 0 1-.438-.52 3.689 3.689 0 0 1-.293-.665 2.923 2.923 0 0 1-.133-.938h-1.53v8.836l.798.205v.206h-3.793zm12.975-4.932a3.412 3.412 0 0 1 .6-1.37h.398v3.082h-.399a3.332 3.332 0 0 1-.599-1.37h-1.53v4.247h3.127c0-.356.045-.667.133-.931a3.63 3.63 0 0 1 .293-.672c.124-.21.27-.383.44-.52h.399v2.466h-7.386v-.206l.798-.205v-8.768l-.798-.205v-.206h7.12v2.466h-.4a1.922 1.922 0 0 1-.439-.52 3.689 3.689 0 0 1-.293-.665 2.923 2.923 0 0 1-.133-.938h-2.861v4.315h1.53zm10.38.548c.302.01.59.06.866.15.23.074.465.195.705.364.24.169.426.408.559.719l1.198 2.74.665.205v.206h-1.863c-.4 0-.728-.108-.985-.322a2.233 2.233 0 0 1-.612-.843l-1.33-3.082h-.866v3.836l.932.205v.206H62.1v-.206l.798-.205v-8.768l-.798-.205v-.206h3.526c.799 0 1.469.067 2.01.2.541.132.978.314 1.31.547.333.233.573.514.72.843.146.328.219.689.219 1.082 0 .31-.044.582-.133.815a2.19 2.19 0 0 1-.353.616 2.062 2.062 0 0 1-.506.445c-.19.12-.383.215-.578.288-.462.183-.98.283-1.557.301v.069zm-1.13-.206c.603 0 1.086-.198 1.45-.595.364-.398.546-.975.546-1.733 0-.758-.182-1.336-.546-1.733-.364-.397-.847-.596-1.45-.596h-.533v4.657h.532zm10.446 4.453c.506 0 .91-.156 1.211-.466.302-.31.453-.726.453-1.247 0-.356-.118-.664-.353-.924a4.52 4.52 0 0 0-.872-.733 17.121 17.121 0 0 0-1.138-.685 7.041 7.041 0 0 1-1.137-.781 4.123 4.123 0 0 1-.872-1.02c-.235-.389-.353-.857-.353-1.405 0-.329.067-.637.2-.924.133-.288.335-.541.605-.76.271-.22.61-.393 1.019-.521.408-.128.887-.192 1.437-.192.31 0 .599.048.865.144.266.096.492.198.678.308.222.128.417.274.586.438.071-.118.149-.226.233-.322.084-.095.162-.175.233-.24.089-.072.177-.136.266-.191h.333v2.603h-.533a4.627 4.627 0 0 0-.519-1.192 3.308 3.308 0 0 0-.745-.829c-.31-.251-.687-.377-1.131-.377-.169 0-.328.037-.48.11-.15.073-.283.176-.398.308a1.568 1.568 0 0 0-.28.48c-.07.187-.106.39-.106.61 0 .392.117.728.352 1.006.235.279.526.537.872.774.346.238.725.47 1.138.699.412.228.792.482 1.138.76.346.279.636.596.871.952s.353.785.353 1.288c0 .356-.075.696-.226 1.02-.151.325-.377.61-.679.856-.302.247-.683.441-1.144.583-.462.141-.999.212-1.61.212a3.45 3.45 0 0 1-1.025-.137 4.28 4.28 0 0 1-.746-.301 2.718 2.718 0 0 1-.625-.452 1.695 1.695 0 0 1-.233.328 3.615 3.615 0 0 1-.233.233 2.422 2.422 0 0 1-.266.192h-.333V33.26h.533c.133.448.319.85.558 1.206.107.155.227.303.36.445.133.142.286.267.459.377.173.11.366.198.579.267.213.068.448.103.705.103zM1.486.986L0 .74V.37h3.243c1.027 0 1.834.21 2.42.629.585.419.995.908 1.229 1.467l4.081 9.493 2.378-6.362-2-4.61L9.865.74V.37h3.243c1.027 0 1.829.21 2.406.629.576.419.99.908 1.243 1.467l4.08 9.493 3.893-10.48-2.027-.74V.37h5v.37l-2.162.74-6.082 16.398h-.81L13.784 6.608l-4.19 11.269h-.81L1.486.987zM46.936 9c0 1.447-.21 2.729-.634 3.847-.424 1.117-1.018 2.058-1.784 2.823-.766.764-1.69 1.344-2.77 1.738-1.081.395-2.28.592-3.595.592-1.315 0-2.513-.197-3.594-.592-1.082-.394-2.005-.974-2.77-1.738-.766-.765-1.361-1.706-1.784-2.823-.424-1.118-.636-2.4-.636-3.847s.212-2.729.636-3.847c.423-1.117 1.018-2.058 1.783-2.823.766-.764 1.69-1.344 2.77-1.738C35.64.197 36.839 0 38.154 0c1.315 0 2.514.197 3.595.592 1.08.394 2.004.974 2.77 1.738.766.765 1.36 1.706 1.784 2.823.423 1.118.635 2.4.635 3.847zm-4.729 0c0-1.627-.121-2.988-.365-4.08-.243-1.094-.558-1.97-.946-2.627-.387-.657-.824-1.122-1.31-1.393-.487-.271-.964-.407-1.433-.407-.468 0-.946.136-1.432.407-.487.271-.924.736-1.311 1.393-.387.658-.703 1.533-.946 2.626S34.099 7.373 34.099 9c0 1.627.122 2.988.365 4.08.243 1.094.559 1.97.946 2.627.387.657.824 1.122 1.31 1.393.487.271.965.407 1.433.407.469 0 .946-.136 1.433-.407.486-.271.923-.736 1.31-1.393.388-.658.703-1.533.946-2.626.244-1.093.365-2.454.365-4.081zM68.74 9c0 1.447-.212 2.729-.635 3.847-.424 1.117-1.018 2.058-1.784 2.823-.766.764-1.69 1.344-2.77 1.738-1.082.395-2.28.592-3.595.592-1.315 0-2.514-.197-3.595-.592-1.08-.394-2.004-.974-2.77-1.738-.766-.765-1.36-1.706-1.784-2.823-.423-1.118-.635-2.4-.635-3.847s.212-2.729.635-3.847c.424-1.117 1.018-2.058 1.784-2.823.766-.764 1.69-1.344 2.77-1.738C57.441.197 58.64 0 59.955 0c1.315 0 2.513.197 3.595.592 1.08.394 2.004.974 2.77 1.738.766.765 1.36 1.706 1.784 2.823.423 1.118.635 2.4.635 3.847zm-4.73 0c0-1.627-.122-2.988-.365-4.08-.243-1.094-.558-1.97-.946-2.627-.387-.657-.824-1.122-1.31-1.393-.487-.271-.965-.407-1.433-.407-.469 0-.946.136-1.432.407-.487.271-.924.736-1.311 1.393-.388.658-.703 1.533-.946 2.626S55.9 7.373 55.9 9c0 1.627.122 2.988.365 4.08.243 1.094.558 1.97.946 2.627.387.657.824 1.122 1.31 1.393.487.271.964.407 1.433.407.468 0 .946-.136 1.432-.407.487-.271.924-.736 1.311-1.393.388-.658.703-1.533.946-2.626s.365-2.454.365-4.081zM80 .37c3.243 0 5.72.76 7.432 2.28C89.144 4.172 90 6.289 90 9c0 2.712-.856 4.829-2.568 6.35-1.711 1.52-4.189 2.28-7.432 2.28h-6.892v-.37l1.622-.37V1.11L73.108.74V.37H80zm-.81.616v16.028H80a5.48 5.48 0 0 0 2.135-.407c.649-.271 1.203-.72 1.662-1.344.46-.625.82-1.447 1.081-2.466.262-1.019.392-2.285.392-3.797s-.13-2.778-.392-3.797c-.26-1.02-.621-1.841-1.08-2.466-.46-.625-1.014-1.073-1.663-1.344A5.48 5.48 0 0 0 80 .986h-.81z"/>
    </g>
</svg>
