<svg width="24" height="19" xmlns="http://www.w3.org/2000/svg">

 <g>
  <title>background</title>
  <rect fill="none" id="canvas_background" height="21" width="26" y="-1" x="-1"/>
 </g>
 <g>
  <title>Layer 1</title>
  <path fill="#7f7f7f" stroke="null" id="svg_1" d="m23.356652,2.317124c-0.853105,0.37921 -1.771218,0.635 -2.734553,0.74947c0.983591,-0.588836 1.737772,-1.521551 2.093428,-2.634215c-0.919997,0.545968 -1.938447,0.942137 -3.023318,1.156002c-0.868179,-0.925179 -2.105676,-1.503651 -3.475072,-1.503651c-2.629033,0 -4.760618,2.131585 -4.760618,4.761089c0,0.372615 0.041925,0.735809 0.12342,1.084871c-3.956975,-0.198791 -7.465493,-2.093899 -9.81377,-4.974483c-0.40983,0.702834 -0.644422,1.520609 -0.644422,2.39397c0,1.651566 0.840386,3.109052 2.117924,3.962628c-0.780089,-0.024967 -1.514485,-0.239303 -2.156552,-0.595902c-0.000471,0.019785 -0.000471,0.040041 -0.000471,0.060297c0,2.306351 1.641203,4.230195 3.819423,4.668289c-0.399466,0.108346 -0.82013,0.166758 -1.254455,0.166758c-0.307137,0 -0.605323,-0.029677 -0.895972,-0.085734c0.606265,1.89134 2.364293,3.268273 4.447358,3.30643c-1.629426,1.277067 -3.681871,2.038313 -5.912852,2.038313c-0.383921,0 -0.763131,-0.022611 -1.135746,-0.066892c2.10756,1.351495 4.609876,2.139122 7.298264,2.139122c8.757634,0 13.546046,-7.254455 13.546046,-13.546046c0,-0.206328 -0.00424,-0.412185 -0.01319,-0.616629c0.929889,-0.669859 1.737301,-1.508832 2.375127,-2.463688z"/>
 </g>
</svg>